<svg viewBox="0 0 16 16" xmlns="http://www.w3.org/2000/svg">
<path d="M5.245 13V12.9286C4.48785 12.6143 4.15745 12.5286 4.15745 12.1C4.15745 12 4.17122 11.9 4.19875 11.7571L6.31878 3H2.34029V3.07143C3.13874 3.42857 3.46913 3.51429 3.46913 3.91429C3.46913 4.01429 3.45537 4.11429 3.42783 4.25714L1.61067 11.7571C1.44547 12.4857 1.14261 12.5143 0 12.9286V13H5.245Z"/>
<path d="M10.9615 13C13.0402 13 15.4218 12.2143 15.4218 9.9C15.4218 8.5 14.114 7.92857 12.7924 7.82857C14.4031 7.68571 16 6.85714 16 5.1C16 3.6 14.7748 3 12.9852 3H8.16692V3.02857C8.48354 3.3 8.63497 3.54286 8.63497 3.92857C8.63497 4.14286 8.59368 4.4 8.52484 4.72857L6.94171 11.2571C6.70768 12.2 6.48742 12.5571 5.77156 12.9714V13H10.9615ZM10.342 7.7L11.3883 3.38571H12.049C13.0815 3.38571 13.5633 3.97143 13.5633 4.94286C13.5633 6.55714 12.4896 7.7 11.0028 7.7H10.342ZM9.17186 12.6143L10.2594 8.05714H11.0992C12.3657 8.05714 12.9439 8.6 12.9439 9.65714C12.9439 11.4286 11.7737 12.6143 10.0942 12.6143H9.17186Z"/>
</svg>
